<svg width="152" height="152" viewBox="0 0 152 152" fill="none" xmlns="http://www.w3.org/2000/svg">
<rect width="152" height="152" rx="36" fill="#1F314B"/>
<path d="M114 48L119.332 68.2709L140 73.5L119.332 78.7291L114 99L108.668 78.7291L88 73.5L108.668 68.2709L114 48Z" fill="#BEA6D1"/>
<path d="M106.5 88L111.729 108.668L132 114L111.729 119.332L106.5 140L101.271 119.332L81 114L101.271 108.668L106.5 88Z" fill="#FDFFAC"/>
<path d="M66 81L71.3316 101.271L92 106.5L71.3316 111.729L66 132L60.6684 111.729L40 106.5L60.6684 101.271L66 81Z" fill="#05C28A"/>
<path d="M73.5 40L78.7291 60.6684L99 66L78.7291 71.3316L73.5 92L68.2709 71.3316L48 66L68.2709 60.6684L73.5 40Z" fill="#72C0F9"/>
</svg>
